<?xml version="1.0" encoding="utf-8"?>
<!-- Generator: Adobe Illustrator 15.0.0, SVG Export Plug-In . SVG Version: 6.00 Build 0)  -->
<!DOCTYPE svg PUBLIC "-//W3C//DTD SVG 1.1//EN" "http://www.w3.org/Graphics/SVG/1.1/DTD/svg11.dtd" [
	<!ENTITY ns_flows "http://ns.adobe.com/Flows/1.0/">
	<!ENTITY ns_extend "http://ns.adobe.com/Extensibility/1.0/">
	<!ENTITY ns_ai "http://ns.adobe.com/AdobeIllustrator/10.0/">
	<!ENTITY ns_graphs "http://ns.adobe.com/Graphs/1.0/">
]>
<svg version="1.1" id="Layer_1" xmlns:x="&ns_extend;" xmlns:i="&ns_ai;" xmlns:graph="&ns_graphs;"
	 xmlns="http://www.w3.org/2000/svg" xmlns:xlink="http://www.w3.org/1999/xlink" xmlns:a="http://ns.adobe.com/AdobeSVGViewerExtensions/3.0/"
	 x="0px" y="0px" width="208.127px" height="60.524px" viewBox="0 0 208.127 60.524" enable-background="new 0 0 208.127 60.524"
	 xml:space="preserve">
<g>
	<rect x="66.225" y="45.962" fill="#56575B" width="0.796" height="8.838"/>
	<path fill="#56575B" d="M74.621,45.962v8.836h-0.822l-2.453-5.188c-0.282-0.594-0.743-1.705-0.91-2.146l-0.038,0.011
		c0.026,0.67,0.064,1.68,0.064,2.375v4.948h-0.796v-8.836h0.82l2.428,5.15c0.307,0.634,0.77,1.679,0.975,2.186l0.039-0.014
		c-0.039-0.646-0.103-1.793-0.103-2.552v-4.771L74.621,45.962L74.621,45.962z"/>
	<polygon fill="#56575B" points="81.259,46.696 79.28,46.696 79.28,54.8 78.486,54.8 78.486,46.696 76.507,46.696 76.507,45.961 
		81.259,45.961 	"/>
	<polygon fill="#56575B" points="87.474,54.082 87.474,54.801 83.147,54.801 83.147,45.962 87.333,45.962 87.333,46.682 
		83.942,46.682 83.942,49.952 87.114,49.952 87.114,50.671 83.942,50.671 83.942,54.082 	"/>
	<path fill="#56575B" d="M89.398,52.251V48.5c0-1.742,0.951-2.663,2.427-2.663c1.45,0,2.413,0.896,2.475,2.525h-0.769
		c-0.064-1.225-0.706-1.794-1.707-1.794c-1.027,0-1.657,0.618-1.657,1.943v3.739c0,1.323,0.707,1.943,1.721,1.943
		c1.025,0,1.732-0.62,1.732-1.819v-1.578h-1.745v-0.707h2.502v2.285c0,1.604-1.027,2.553-2.49,2.553
		C90.426,54.928,89.398,53.981,89.398,52.251"/>
	<path fill="#56575B" d="M98.346,51.355h-0.989v3.446h-0.794v-8.839h2.054c1.655,0,2.566,0.948,2.566,2.589
		c0,1.542-0.743,2.525-1.976,2.754l2.208,3.496h-0.923L98.346,51.355z M97.357,50.623h1.246c1.169,0,1.771-0.721,1.771-2.021
		c0-1.263-0.602-1.905-1.757-1.905h-1.259V50.623L97.357,50.623z"/>
	<path fill="#56575B" d="M106.808,52.73h-2.851l-0.525,2.071h-0.847l2.36-8.837h0.874l2.363,8.837h-0.848L106.808,52.73z
		 M106.627,52.024l-0.924-3.661c-0.142-0.545-0.269-1.174-0.309-1.388h-0.026c-0.037,0.214-0.166,0.843-0.308,1.388l-0.924,3.661
		H106.627z"/>
	<path fill="#56575B" d="M112.24,54.94l-0.155,0.494c0.051-0.014,0.117-0.014,0.18-0.014c0.477,0,0.911,0.34,0.911,0.845
		c0,0.632-0.5,0.997-1.181,0.997c-0.603,0-1.077-0.328-1.129-0.92h0.63c0.051,0.225,0.255,0.353,0.525,0.353
		c0.307,0,0.538-0.152,0.538-0.441c0-0.291-0.179-0.429-0.498-0.429c-0.155,0-0.311,0.038-0.399,0.088l-0.218-0.204l0.244-0.77
		c-1.271-0.139-2.132-1.061-2.132-2.639v-3.839c0-1.704,0.988-2.652,2.401-2.652c1.462,0,2.399,0.908,2.49,2.553h-0.771
		c-0.089-1.252-0.706-1.844-1.72-1.844c-0.963,0-1.631,0.631-1.631,1.943V52.3c0,1.314,0.693,1.944,1.683,1.944
		c1.025,0,1.616-0.62,1.743-1.843h0.771C114.41,53.93,113.573,54.852,112.24,54.94"/>
	<path fill="#56575B" d="M119.749,52.73h-2.851l-0.525,2.071h-0.848l2.362-8.837h0.872l2.362,8.837h-0.846L119.749,52.73z
		 M117.605,44.725h-0.693c0.026-0.605,0.36-0.985,0.874-0.985c0.525,0,0.731,0.406,0.999,0.406c0.168,0,0.271-0.128,0.297-0.368
		h0.642c-0.064,0.608-0.371,0.985-0.872,0.985c-0.514,0-0.718-0.404-1.001-0.404C117.708,44.359,117.631,44.486,117.605,44.725
		 M119.569,52.024l-0.925-3.661c-0.141-0.545-0.269-1.174-0.308-1.388h-0.027c-0.037,0.214-0.165,0.843-0.307,1.388l-0.924,3.661
		H119.569z"/>
	<path fill="#56575B" d="M122.497,52.062v-3.36c0-1.779,0.963-2.903,2.58-2.903s2.58,1.124,2.58,2.903v3.36
		c0,1.779-0.963,2.902-2.58,2.902S122.497,53.841,122.497,52.062 M126.848,52.062v-3.36c0-1.363-0.602-2.146-1.771-2.146
		c-1.167,0-1.771,0.782-1.771,2.146v3.36c0,1.363,0.604,2.146,1.771,2.146C126.245,54.208,126.848,53.423,126.848,52.062"/>
	<path fill="#56575B" d="M135.45,51.355h-0.988v3.446h-0.794v-8.839h2.054c1.655,0,2.566,0.948,2.566,2.589
		c0,1.542-0.743,2.525-1.977,2.754l2.208,3.496h-0.926L135.45,51.355z M134.46,50.623h1.245c1.171,0,1.771-0.721,1.771-2.021
		c0-1.263-0.601-1.905-1.758-1.905h-1.259V50.623L134.46,50.623z"/>
	<polygon fill="#56575B" points="144.861,54.082 144.861,54.801 140.533,54.801 140.533,45.962 144.719,45.962 144.719,46.682 
		141.331,46.682 141.331,49.952 144.5,49.952 144.5,50.671 141.331,50.671 141.331,54.082 	"/>
	<path fill="#56575B" d="M146.453,52.528h0.796c0.037,1.1,0.681,1.681,1.682,1.681c1.09,0,1.63-0.669,1.63-1.629
		c0-2.046-3.979-2.059-3.979-4.622c0-1.211,0.937-2.159,2.322-2.159c1.413,0,2.285,0.985,2.35,2.374h-0.794
		c-0.052-1.114-0.669-1.616-1.528-1.616c-0.977,0-1.54,0.554-1.54,1.401c0,2.046,3.979,1.969,3.979,4.622
		c0,1.198-0.835,2.386-2.414,2.386C147.466,54.965,146.491,53.992,146.453,52.528"/>
	<path fill="#56575B" d="M158.096,48.677c0,1.818-0.913,2.778-2.567,2.778h-1.36v3.346h-0.796v-8.837h2.156
		C157.183,45.962,158.096,46.947,158.096,48.677 M157.3,48.677c0-1.313-0.564-1.97-1.771-1.97h-1.36v4.002h1.36
		C156.736,50.709,157.3,50.08,157.3,48.677"/>
	<path fill="#56575B" d="M159.958,52.062v-3.36c0-1.779,0.964-2.903,2.58-2.903c1.617,0,2.58,1.124,2.58,2.903v3.36
		c0,1.779-0.963,2.902-2.58,2.902C160.922,54.964,159.958,53.841,159.958,52.062 M164.311,52.062v-3.36
		c0-1.363-0.603-2.146-1.772-2.146c-1.168,0-1.771,0.782-1.771,2.146v3.36c0,1.363,0.604,2.146,1.771,2.146
		C163.708,54.208,164.311,53.423,164.311,52.062"/>
	<path fill="#56575B" d="M172.476,45.962v8.836h-0.821l-2.454-5.188c-0.28-0.594-0.743-1.705-0.909-2.146l-0.038,0.011
		c0.024,0.67,0.063,1.68,0.063,2.375v4.948h-0.794v-8.836h0.821l2.426,5.15c0.307,0.634,0.771,1.679,0.976,2.186l0.038-0.014
		c-0.038-0.646-0.103-1.793-0.103-2.552v-4.771L172.476,45.962L172.476,45.962z"/>
	<path fill="#56575B" d="M174.542,52.528h0.796c0.038,1.1,0.681,1.681,1.682,1.681c1.091,0,1.63-0.669,1.63-1.629
		c0-2.046-3.979-2.059-3.979-4.622c0-1.211,0.937-2.159,2.324-2.159c1.41,0,2.283,0.985,2.349,2.374h-0.797
		c-0.051-1.114-0.667-1.616-1.526-1.616c-0.975,0-1.54,0.554-1.54,1.401c0,2.046,3.979,1.969,3.979,4.622
		c0,1.198-0.835,2.386-2.413,2.386C175.557,54.965,174.582,53.992,174.542,52.528"/>
	<path fill="#56575B" d="M185.069,52.73h-2.849l-0.525,2.071h-0.848l2.361-8.837h0.875l2.361,8.837h-0.847L185.069,52.73z
		 M184.891,52.024l-0.926-3.661c-0.142-0.545-0.268-1.175-0.309-1.388h-0.026c-0.038,0.213-0.166,0.843-0.307,1.388l-0.927,3.661
		H184.891z M183.761,45.092h-0.758l1.182-1.426h0.923L183.761,45.092z"/>
	<path fill="#56575B" d="M187.111,45.962h0.848l1.347,5.529c0.22,0.908,0.359,1.567,0.526,2.235h0.052
		c0.169-0.668,0.309-1.327,0.527-2.235l1.348-5.529h0.847l-2.285,8.836h-0.924L187.111,45.962z"/>
	<polygon fill="#56575B" points="198.73,54.082 198.73,54.801 194.405,54.801 194.405,45.962 198.589,45.962 198.589,46.682 
		195.2,46.682 195.2,49.952 198.372,49.952 198.372,50.671 195.2,50.671 195.2,54.082 	"/>
	<polygon fill="#56575B" points="204.983,54.057 204.983,54.8 200.9,54.8 200.9,45.961 201.695,45.961 201.695,54.057 	"/>
	<path fill="#56575B" d="M65.456,36.755c0-8.998,11.007-13.497,11.007-20.648c0-2.732-1.807-4.66-4.62-4.619
		c-2.611,0-4.378,1.847-4.499,5.141h-1.769c0.241-4.057,2.692-6.829,6.267-6.829c3.857-0.04,6.428,2.692,6.428,6.308
		c0,8.074-11.047,12.495-11.047,20.488h11.248v1.688H65.456V36.755z"/>
	<path fill="#56575B" d="M83.729,31.733V16.709c0-4.139,2.733-6.951,6.59-6.951c3.856,0,6.587,2.812,6.587,6.951v15.023
		c0,4.139-2.731,6.95-6.587,6.95C86.463,38.684,83.729,35.872,83.729,31.733 M95.18,31.733V16.709c0-3.214-1.969-5.263-4.86-5.263
		c-2.893,0-4.823,2.049-4.823,5.263v15.023c0,3.214,1.93,5.263,4.823,5.263C93.211,36.997,95.18,34.948,95.18,31.733"/>
	<path fill="#56575B" d="M103.252,31.733V16.709c0-4.139,2.733-6.951,6.589-6.951s6.588,2.812,6.588,6.951v15.023
		c0,4.139-2.731,6.95-6.588,6.95C105.985,38.684,103.252,35.872,103.252,31.733 M114.702,31.733V16.709
		c0-3.214-1.969-5.263-4.86-5.263c-2.894,0-4.822,2.049-4.822,5.263v15.023c0,3.214,1.928,5.263,4.822,5.263
		C112.733,36.997,114.702,34.948,114.702,31.733"/>
	<polygon fill="#56575B" points="133.099,10.121 133.099,11.207 125.425,38.322 123.579,38.322 131.091,11.848 120.525,11.848 
		120.525,10.121 	"/>
	<path fill="#F15832" d="M137.957,30.006V18.437c0-5.703,3.175-8.798,8.115-8.798c5.103,0,8.115,3.054,8.355,8.638h-4.017
		c-0.24-3.294-1.689-4.78-4.379-4.78c-2.369,0-3.938,1.566-3.938,4.94v11.569c0,3.335,1.568,4.902,4.018,4.902
		c2.732,0,4.179-1.526,4.46-4.74h4.019c-0.281,5.544-3.296,8.597-8.479,8.597C141.172,38.763,137.957,35.67,137.957,30.006"/>
	<path fill="#F15832" d="M159.085,29.363V19.079c0-5.864,3.214-9.44,8.598-9.44c5.383,0,8.596,3.576,8.596,9.44v10.284
		c0,5.865-3.213,9.441-8.596,9.441C162.299,38.804,159.085,35.228,159.085,29.363 M172.101,29.363V19.079
		c0-3.535-1.528-5.462-4.42-5.462c-2.933,0-4.419,1.927-4.419,5.462v10.284c0,3.536,1.486,5.465,4.419,5.465
		C170.573,34.828,172.101,32.899,172.101,29.363"/>
	<path fill="#F15832" d="M204.476,10.162v28.12H200.5V27.315c0.079-3.214,0.16-6.146,0.321-9.078l-0.163-0.081
		c-0.803,2.25-1.768,4.821-2.731,7.392l-2.45,6.387h-4.018l-2.449-6.387c-0.966-2.571-1.931-5.143-2.733-7.392l-0.161,0.081
		c0.12,2.932,0.241,5.864,0.321,9.078v10.966h-3.977v-28.12h4.137l4.74,11.408c0.644,1.608,1.606,4.299,2.049,5.585h0.16
		c0.443-1.286,1.407-3.978,2.051-5.585l4.74-11.408H204.476z"/>
	<path fill="#F15832" d="M29.176,31.341L51.67,15.32c2.478,3.94,3.916,8.601,3.916,13.598c0,14.137-11.459,25.594-25.595,25.594
		C15.856,54.513,4.396,43.055,4.396,28.918c0-5.413,1.686-10.431,4.554-14.565l14.834,20.829L29.176,31.341z"/>
	<path fill="#56575B" d="M13.508,9.343c4.453-3.753,10.201-6.019,16.483-6.019c6.746,0,12.879,2.615,17.451,6.88L25.334,25.949
		L13.508,9.343z"/>
</g>
</svg>
